<?xml version="1.0" encoding="UTF-8"?> <svg xmlns="http://www.w3.org/2000/svg" width="271" height="47" viewBox="0 0 271 47" fill="none"> <path d="M43.4804 12.4285C33.9479 12.4285 26.5289 19.8475 26.5289 29.3351C26.5289 38.8226 33.9479 46.2415 43.4804 46.2415C53.0128 46.2415 60.4319 38.8226 60.4319 29.3351C60.4319 19.8475 53.0128 12.4285 43.4804 12.4285ZM43.4804 42.3297C36.1062 42.3297 30.5306 36.7092 30.5306 29.3351C30.5306 21.9609 36.1062 16.3404 43.4804 16.3404C50.8545 16.3404 56.4302 21.9609 56.4302 29.3351C56.4302 36.7092 50.8545 42.3297 43.4804 42.3297Z" fill="black"></path> <path d="M230.262 9.59573V0.423112C230.262 0.0183621 229.902 -0.116555 229.498 0.108362L218.122 6.40333L206.746 0.108362C206.431 -0.116555 205.981 0.0183621 205.981 0.423112V9.59573H218.212H230.262ZM227.385 4.15501V7.07774H222.349L227.385 4.15501ZM208.859 7.07774V4.15501L213.895 7.07774H208.859Z" fill="black"></path> <path d="M22.4371 24.7039C22.4371 18.184 17.4461 13.6877 10.8813 13.6877H0V45.3875H3.95682V17.2847H10.7014C15.2879 17.2847 18.5252 20.0276 18.5252 24.7039C18.5252 29.3801 15.2879 32.5276 10.7014 32.5276H5.03598C4.49648 32.5276 4.40648 33.0672 4.72123 33.382L18.6152 46.0619L21.0432 43.1392L12.644 35.7045C18.2534 35.2431 22.4371 30.6464 22.4371 24.7039Z" fill="black"></path> <path d="M118.661 12.6982L103.958 44.2181L107.51 45.9717L111.518 37.3835H126.823L130.801 45.9717L134.353 44.2181L119.65 12.6982C119.425 12.2035 118.886 12.2035 118.661 12.6982ZM113.114 33.9662L119.2 20.9266L125.24 33.9662H113.114Z" fill="black"></path> <path d="M202.025 45.3874H234.219V13.2827H202.025V45.3874ZM220.145 16.9699H230.262V41.7452H220.145V16.9699ZM205.982 16.9699H216.099V41.7452H205.982V16.9699Z" fill="black"></path> <path d="M97.9771 12.7433L82.8452 36.263L67.6713 12.7433C67.3565 12.2487 66.8169 12.4736 66.8169 13.0131V45.3874H70.7737V25.2765L82.2846 42.6445C82.6443 43.1842 83.0041 43.1842 83.3638 42.6445L94.8746 24.7294V45.3874H98.8314V13.0131C98.8314 12.4736 98.3368 12.2038 97.9771 12.7433Z" fill="black"></path> <path d="M257.196 42.3747C248.787 42.3747 244.741 35.8549 244.741 29.3351C244.741 22.8152 248.787 16.3404 257.196 16.3404C261.288 16.3404 265.334 17.6894 267.448 21.7811L271 19.0833C268.302 14.7666 263.356 12.4285 257.196 12.4285C247.529 12.4285 240.514 19.8926 240.514 29.3351C240.514 38.7775 247.573 46.1967 257.241 46.2416C264.03 46.2866 268.527 43.5887 270.955 39.677L267.583 37.1139C265.469 41.2057 261.332 42.3747 257.196 42.3747Z" fill="black"></path> <path d="M163.715 37.0213L140.559 12.6982C140.019 12.1136 139.479 12.2935 139.479 13.1028V45.3873H143.436V21.5435L166.548 45.7919C167.042 46.3316 167.627 46.1516 167.627 45.6121V13.2826H163.715V37.0213Z" fill="black"></path> <path d="M174.102 17.0598H182.87V45.3875H186.827V17.0598H195.595V13.283H174.102V17.0598Z" fill="black"></path> </svg> 